<?xml version="1.0" standalone="no"?>
<!DOCTYPE svg PUBLIC "-//W3C//DTD SVG 20010904//EN"
 "http://www.w3.org/TR/2001/REC-SVG-20010904/DTD/svg10.dtd">
<svg version="1.0" xmlns="http://www.w3.org/2000/svg"
 width="229.000000pt" height="232.000000pt" viewBox="0 0 229.000000 232.000000"
 preserveAspectRatio="xMidYMid meet">
<metadata>
Created by potrace 1.16, written by Peter Selinger 2001-2019
</metadata>
<g transform="translate(0.000000,232.000000) scale(0.100000,-0.100000)"
fill="#000000" stroke="none">
<path d="M0 1160 l0 -1160 1145 0 1145 0 0 1160 0 1160 -1145 0 -1145 0 0
-1160z m833 346 c55 -24 115 -83 145 -140 20 -40 27 -70 30 -137 8 -159 -41
-258 -157 -316 l-64 -33 -164 0 -163 0 0 326 0 326 168 -4 c128 -4 176 -8 205
-22z m532 -163 c43 -104 82 -200 87 -215 6 -16 13 -28 17 -28 4 0 31 60 61
133 29 72 69 169 88 215 l34 82 89 0 89 0 0 -325 0 -325 -70 0 -70 0 -2 208
-3 207 -84 -207 -83 -208 -47 0 -47 0 -85 212 -84 212 -3 -212 -2 -212 -70 0
-70 0 0 325 0 325 89 0 89 0 77 -187z"/>
<path d="M600 1205 l0 -207 84 3 c95 4 125 20 161 80 31 52 29 200 -3 252 -32
51 -72 70 -164 75 l-78 5 0 -208z"/>
</g>
</svg>
